<?xml version="1.0" standalone="no"?>
<!DOCTYPE svg PUBLIC "-//W3C//DTD SVG 20010904//EN"
 "http://www.w3.org/TR/2001/REC-SVG-20010904/DTD/svg10.dtd">
<svg version="1.0" xmlns="http://www.w3.org/2000/svg"
 width="700.000000pt" height="700.000000pt" viewBox="0 0 700.000000 700.000000"
 preserveAspectRatio="xMidYMid meet">
<metadata>
Created by potrace 1.14, written by Peter Selinger 2001-2017
</metadata>
<g transform="translate(0.000000,700.000000) scale(0.100000,-0.100000)"
fill="#000000" stroke="none">
<path d="M440 6882 c-83 -22 -141 -57 -208 -124 -60 -60 -107 -148 -122 -227
-6 -35 -10 -732 -10 -1985 0 -2119 -3 -2001 60 -2110 37 -65 111 -139 176
-176 104 -60 98 -60 1022 -60 l842 0 0 -842 c0 -924 0 -918 60 -1022 37 -65
111 -139 176 -176 109 -63 -9 -60 2110 -60 1253 0 1950 4 1985 10 121 23 245
112 309 225 63 110 60 -10 60 2115 0 2124 3 2005 -60 2114 -37 65 -118 146
-179 180 -103 56 -103 56 -1018 56 l-843 0 0 843 c0 924 0 917 -60 1022 -64
113 -188 202 -309 225 -35 6 -732 10 -1990 9 -1788 0 -1941 -1 -2001 -17z
m3860 -1424 c0 -619 4 -956 10 -980 17 -59 69 -120 129 -150 l55 -28 953 0
953 0 0 -1850 0 -1850 -1850 0 -1850 0 0 953 0 953 -27 55 c-31 60 -92 112
-151 129 -24 6 -361 10 -979 10 l-943 0 0 1850 0 1850 1850 0 1850 0 0 -942z"/>
<path d="M2015 5770 c-205 -27 -358 -160 -422 -365 -17 -56 -18 -112 -18 -880
0 -915 -5 -851 71 -935 58 -64 105 -85 194 -85 58 0 84 5 116 22 45 24 109 90
126 131 6 15 14 106 18 202 9 211 22 252 107 330 67 61 115 76 272 84 261 14
474 90 620 222 95 86 179 232 206 360 22 104 20 303 -5 398 -64 252 -246 415
-536 481 -170 39 -576 57 -749 35z m571 -429 c35 -10 82 -30 104 -45 89 -59
132 -184 110 -321 -15 -93 -41 -145 -102 -200 -71 -63 -157 -90 -298 -90 -121
0 -160 15 -223 84 -62 68 -70 99 -71 252 -1 132 0 137 29 194 35 68 84 111
157 137 63 22 189 17 294 -11z"/>
<path d="M4056 3485 c-171 -43 -310 -177 -363 -350 -17 -56 -18 -109 -18 -770
0 -661 1 -714 18 -770 30 -95 65 -155 131 -221 65 -65 125 -101 216 -129 113
-34 616 -29 795 9 307 65 509 231 570 471 20 78 20 253 0 330 -46 174 -188
299 -405 354 -81 20 -98 35 -50 44 107 22 257 143 310 251 104 211 62 464
-101 610 -92 83 -207 132 -380 162 -135 23 -640 30 -723 9z m514 -395 c92 -15
165 -53 198 -103 24 -36 27 -50 27 -126 0 -93 -13 -130 -64 -184 -53 -58 -143
-87 -269 -87 -90 0 -129 12 -180 55 -57 48 -77 98 -77 195 0 92 13 129 64 183
64 70 154 90 301 67z m122 -897 c117 -25 188 -90 209 -191 14 -72 5 -151 -25
-210 -31 -60 -58 -85 -127 -116 -77 -36 -157 -49 -265 -44 -81 3 -98 7 -140
34 -158 97 -190 318 -67 455 85 94 213 117 415 72z"/>
</g>
</svg>
