<svg xmlns="http://www.w3.org/2000/svg" width="2500" height="1379" viewBox="0 0 444.893 245.414"><g fill="#0075C9"><path d="M239.038 72.43c-33.081 0-61.806 18.6-76.322 45.904-14.516-27.305-43.24-45.902-76.32-45.902-19.443 0-37.385 6.424-51.821 17.266V16.925h-.008C34.365 7.547 26.713 0 17.286 0 7.858 0 .208 7.547.008 16.925H0v143.333h.036c.768 47.051 39.125 84.967 86.359 84.967 33.08 0 61.805-18.603 76.32-45.908 14.517 27.307 43.241 45.906 76.321 45.906 47.715 0 86.396-38.684 86.396-86.396.001-47.718-38.682-86.397-86.394-86.397zM86.395 210.648c-28.621 0-51.821-23.201-51.821-51.82 0-28.623 23.201-51.823 51.821-51.823 28.621 0 51.822 23.2 51.822 51.823 0 28.619-23.201 51.82-51.822 51.82zm152.643 0c-28.622 0-51.821-23.201-51.821-51.822 0-28.623 23.2-51.821 51.821-51.821 28.619 0 51.822 23.198 51.822 51.821-.001 28.621-23.203 51.822-51.822 51.822z"/><path d="M441.651 218.033l-44.246-59.143 44.246-59.144-.008-.007c5.473-7.62 3.887-18.249-3.652-23.913-7.537-5.658-18.187-4.221-23.98 3.157l-.004-.002-38.188 51.047-38.188-51.047-.006.009c-5.793-7.385-16.441-8.822-23.981-3.16-7.539 5.664-9.125 16.293-3.649 23.911l-.008.005 44.245 59.144-44.245 59.143.008.005c-5.477 7.62-3.89 18.247 3.649 23.909 7.54 5.664 18.188 4.225 23.981-3.155l.006.007 38.188-51.049 38.188 51.049.004-.002c5.794 7.377 16.443 8.814 23.98 3.154 7.539-5.662 9.125-16.291 3.652-23.91l.008-.008z"/></g></svg>

