<svg viewBox="0 0 48 48" xmlns="http://www.w3.org/2000/svg">
  <g fill="none" stroke-width="2">
    <path d="M22.72 3.6q-3.07.42-6.5.93-4.38.65-6.33 1.55-6.1 2.82-7.36 10.17-.4 2.36 1.05 8.86" stroke="#f29293" vector-effect="non-scaling-stroke"/>
    <path d="M3.58 25.11q.41 3.37.99 7.12.71 4.55 1.93 6.71c3.03 5.38 8.27 7.1 14.18 6.23q2.41-.35 4.85-.78" stroke="#fcd98e" vector-effect="non-scaling-stroke"/>
    <path d="M25.53 44.39c4.22-.61 9.71-.96 13.13-2.74q5.86-3.07 6.82-10.39.24-1.79-.87-7.32" stroke="#91b6da" vector-effect="non-scaling-stroke"/>
    <path d="M44.61 23.94q-.53-3.76-1.16-7.82-.81-5.16-2.22-7.5-3.29-5.45-10.48-6.13Q29 2.32 22.72 3.6" stroke="#84cca4" vector-effect="non-scaling-stroke"/>
    <path d="M44.61 23.94q-5 3.33-8.53.07" stroke="#15837f" vector-effect="non-scaling-stroke"/>
    <path d="m36.08 24.01-1.57-9.66a4.02 4.01-9 0 0-4.57-3.32l-6.86 1.05" stroke="#84cca4" vector-effect="non-scaling-stroke"/>
    <path d="M23.08 12.08q5.48-3.98-.36-8.48" stroke="#765f38" vector-effect="non-scaling-stroke"/>
    <path d="M23.08 12.08q-3.97.61-7.87 1.27c-5.89.99-4.04 6-3.39 10.14" stroke="#f29293" vector-effect="non-scaling-stroke"/>
    <path d="M11.82 23.49q-5.26-2.83-8.24 1.62" stroke="#ef6c22" vector-effect="non-scaling-stroke"/>
    <path d="m36.08 24.01.89 6.05a3.91 3.9-8.8 0 1-3.25 4.43l-9.06 1.45" stroke="#91b6da" vector-effect="non-scaling-stroke"/>
    <path d="m24.66 35.94-6.64 1.01a3.97 3.96-9 0 1-4.51-3.27l-1.69-10.19" stroke="#fcd98e" vector-effect="non-scaling-stroke"/>
    <path d="M24.66 35.94q-5.27 4.74.87 8.45" stroke="#8e9069" vector-effect="non-scaling-stroke"/>
  </g>
  <path d="M28.81 0h4.41q10.49 2.51 12.12 12.75 1.95 12.2 2.66 16.06v4.44q-1.6 6.72-6.61 9.84-2.61 1.63-10.65 2.93-5.77.93-11.54 1.98h-4.44Q4.29 45.48 2.66 35.25.71 23.01 0 19.14v-4.4Q2.58 4.12 12.5 2.7 20.66 1.52 28.81 0m-6.09 3.6q-3.07.42-6.5.93-4.38.65-6.33 1.55-6.1 2.82-7.36 10.17-.4 2.36 1.05 8.86.41 3.37.99 7.12.71 4.55 1.93 6.71c3.03 5.38 8.27 7.1 14.18 6.23q2.41-.35 4.85-.78c4.22-.61 9.71-.96 13.13-2.74q5.86-3.07 6.82-10.39.24-1.79-.87-7.32-.53-3.76-1.16-7.82-.81-5.16-2.22-7.5-3.29-5.45-10.48-6.13Q29 2.32 22.72 3.6" fill="#fff"/>
  <path d="M44.61 23.94q-5 3.33-8.53.07l-1.57-9.66a4.02 4.01-9 0 0-4.57-3.32l-6.86 1.05q5.48-3.98-.36-8.48Q29 2.32 30.75 2.49q7.19.68 10.48 6.13 1.41 2.34 2.22 7.5.63 4.06 1.16 7.82" fill="#089949"/>
  <path d="M22.72 3.6q5.84 4.5.36 8.48-3.97.61-7.87 1.27c-5.89.99-4.04 6-3.39 10.14q-5.26-2.83-8.24 1.62-1.45-6.5-1.05-8.86Q3.79 8.9 9.89 6.08q1.95-.9 6.33-1.55 3.43-.51 6.5-.93" fill="#e42527"/>
  <path d="m36.08 24.01.89 6.05a3.91 3.9-8.8 0 1-3.25 4.43l-9.06 1.45-6.64 1.01a3.97 3.96-9 0 1-4.51-3.27l-1.69-10.19c-.65-4.14-2.5-9.15 3.39-10.14q3.9-.66 7.87-1.27l6.86-1.05a4.02 4.01-9 0 1 4.57 3.32z" fill="#fff"/>
  <path d="m11.82 23.49 1.69 10.19a3.97 3.96-9 0 0 4.51 3.27l6.64-1.01q-5.27 4.74.87 8.45-2.44.43-4.85.78c-5.91.87-11.15-.85-14.18-6.23q-1.22-2.16-1.93-6.71-.58-3.75-.99-7.12 2.98-4.45 8.24-1.62" fill="#f9b21d"/>
  <path d="M36.08 24.01q3.53 3.26 8.53-.07 1.11 5.53.87 7.32-.96 7.32-6.82 10.39c-3.42 1.78-8.91 2.13-13.13 2.74q-6.14-3.71-.87-8.45l9.06-1.45a3.91 3.9-8.8 0 0 3.25-4.43z" fill="#226db4"/>
</svg>