<svg viewBox="0 0 40 21.6" xmlns="http://www.w3.org/2000/svg"><path d="M39.7 19.2c.5.7.4 1.6-.2 2.1-.7.5-1.7.4-2.2-.2l-3.5-4.5-3.4 4.4c-.5.7-1.5.7-2.2.2-.7-.5-.8-1.4-.3-2.1l4-5.2-4-5.2c-.5-.7-.3-1.7.3-2.2.7-.5 1.7-.3 2.2.3l3.4 4.5L37.3 7c.5-.7 1.4-.8 2.2-.3.7.5.7 1.5.2 2.2L35.8 14l3.9 5.2zm-18.2-.6c-2.6 0-4.7-2-4.7-4.6 0-2.5 2.1-4.6 4.7-4.6s4.7 2.1 4.7 4.6c-.1 2.6-2.2 4.6-4.7 4.6zm-13.8 0c-2.6 0-4.7-2-4.7-4.6 0-2.5 2.1-4.6 4.7-4.6s4.7 2.1 4.7 4.6c0 2.6-2.1 4.6-4.7 4.6zM21.5 6.4c-2.9 0-5.5 1.6-6.8 4-1.3-2.4-3.9-4-6.9-4-1.8 0-3.4.6-4.7 1.5V1.5C3.1.7 2.4 0 1.6 0 .7 0 0 .7 0 1.5v12.6c.1 4.2 3.5 7.5 7.7 7.5 3 0 5.6-1.7 6.9-4.1 1.3 2.4 3.9 4.1 6.8 4.1 4.3 0 7.8-3.4 7.8-7.7.1-4.1-3.4-7.5-7.7-7.5z" fill="#0061d5"/></svg>
