<svg width="256" height="247" viewBox="0 0 256 247" fill="none" xmlns="http://www.w3.org/2000/svg">
    <path d="M251.729 97.7258L251.37 96.8097L216.663 6.23026C215.957 4.45495 214.706 2.94895 213.091 1.92834C211.475 0.925064 209.59 0.441856 207.69 0.543954C205.791 0.646053 203.968 1.32854 202.469 2.49927C200.986 3.70361 199.911 5.33554 199.389 7.17296L175.954 78.8717H81.0591L57.6242 7.17296C57.116 5.32553 56.0381 3.68542 54.5438 2.48599C53.0445 1.31526 51.2221 0.632772 49.3226 0.530674C47.4231 0.428575 45.538 0.911784 43.9218 1.91506C42.3103 2.93979 41.061 4.44447 40.3501 6.21698L5.57625 96.7566L5.23103 97.6727C0.234724 110.727 -0.381989 125.052 3.47388 138.488C7.32974 151.924 15.4491 163.742 26.6079 172.16L26.7274 172.253L27.046 172.478L79.9172 212.072L106.074 231.869L122.007 243.898C123.871 245.313 126.146 246.079 128.486 246.079C130.827 246.079 133.102 245.313 134.966 243.898L150.899 231.869L177.056 212.072L230.246 172.239L230.378 172.133C241.512 163.713 249.613 151.908 253.463 138.49C257.313 125.073 256.704 110.768 251.729 97.7258Z" fill="#E24329"/>
    <path d="M251.729 97.7258L251.37 96.8097C234.458 100.281 218.522 107.444 204.7 117.788L128.473 175.426C154.431 195.064 177.029 212.125 177.029 212.125L230.219 172.293L230.352 172.186C241.501 163.767 249.615 151.953 253.47 138.524C257.325 125.095 256.714 110.778 251.729 97.7258Z" fill="#FC6D26"/>
    <path d="M79.9172 212.125L106.074 231.922L122.007 243.951C123.871 245.366 126.146 246.133 128.486 246.133C130.827 246.133 133.102 245.366 134.966 243.951L150.899 231.922L177.056 212.125C177.056 212.125 154.431 195.01 128.473 175.426C102.516 195.01 79.9172 212.125 79.9172 212.125Z" fill="#FCA326"/>
    <path d="M52.2335 117.788C38.4222 107.423 22.4892 100.241 5.57625 96.7566L5.23103 97.6727C0.234724 110.727 -0.381989 125.052 3.47388 138.488C7.32974 151.924 15.4491 163.741 26.6079 172.16L26.7274 172.253L27.046 172.478L79.9172 212.072C79.9172 212.072 102.489 195.01 128.473 175.373L52.2335 117.788Z" fill="#FC6D26"/>
</svg>
