<svg xmlns="http://www.w3.org/2000/svg" width="2500" height="2500" viewBox="0 0 256 256"><path fill="#ffe812" d="M256 236q-2 18-20 20H20q-18-2-20-20V20Q2 2 20 0h216q18 2 20 20z"/><path d="M128 36C71 36 24 73 24 118c0 29 19 55 49 69l-11 38 1 3h3l44-29 18 1c57 0 104-37 104-82s-47-82-104-82"/><path fill="#ffe812" d="M71 147q-6-1-6-6v-36H55a6 6 0 0 1 0-11h31a6 6 0 0 1 0 11h-9v36q-1 5-6 6m52 0q-3 0-5-3l-3-8H97l-3 8q-2 3-5 3l-4-1q-3-1-1-9l14-38q2-4 8-5 6 1 8 5l14 38q2 8-1 9zm-11-22-6-17-6 17zm26 21q-5-1-6-6v-40q1-6 6-6 7 0 7 6v35h12q5 0 6 5 0 7-6 6zm33 1q-5-1-6-6v-41a6 6 0 0 1 12 0v12l17-16 3-2 5 2 1 4-1 4-14 13 15 20 1 4-2 4-4 1-5-2-14-19-2 2v14a6 6 0 0 1-6 6"/></svg>
