<svg xmlns="http://www.w3.org/2000/svg" width="256" height="256" fill="none"><path fill="#00D6B9" d="m136.795 125.52.572-.564c.364-.369.76-.758 1.15-1.128l.793-.758 2.34-2.308 3.218-3.118 2.73-2.704 2.567-2.528 2.678-2.645 2.458-2.418 3.444-3.371a55.603 55.603 0 0 1 1.996-1.887 103.038 103.038 0 0 1 3.835-3.293 86.29 86.29 0 0 1 9.191-6.327 101.9 101.9 0 0 1 5.642-3.04 75.26 75.26 0 0 1 8.742-3.566c.54-.175 1.073-.37 1.638-.538a134.75 134.75 0 0 0-25.577-51.188 12.399 12.399 0 0 0-9.62-4.583H55.753a1.862 1.862 0 0 0-1.766 1.274 1.85 1.85 0 0 0 .661 2.071 287.944 287.944 0 0 1 81.926 92.872l.227-.259-.006.006Z"/><path fill="#3370FF" d="M97.509 212.285c51.044 0 95.517-28.096 118.696-69.611a131.075 131.075 0 0 0 2.366-4.415 54.408 54.408 0 0 1-5.44 8.492 61.354 61.354 0 0 1-3.776 4.389 48.676 48.676 0 0 1-5.922 5.283 42.678 42.678 0 0 1-2.678 1.913 53.784 53.784 0 0 1-3.607 2.223 51.346 51.346 0 0 1-11.401 4.668 49.333 49.333 0 0 1-6.059 1.297 60.502 60.502 0 0 1-4.484.505c-1.58.11-3.186.143-4.798.143a57.737 57.737 0 0 1-5.355-.337 64.835 64.835 0 0 1-3.978-.564 50.408 50.408 0 0 1-3.465-.733c-.624-.142-1.215-.311-1.833-.48a356.208 356.208 0 0 1-5.076-1.406c-.845-.253-1.69-.474-2.509-.726a148.142 148.142 0 0 1-3.758-1.154c-1.014-.311-2.028-.649-3.042-.986-.962-.311-1.949-.622-2.905-.959l-1.976-.674-2.392-.843-1.69-.616a121.791 121.791 0 0 1-3.361-1.238c-.65-.259-1.3-.48-1.95-.733l-2.587-1.011-2.736-1.102-1.781-.726-2.197-.908-1.69-.693-1.755-.765-1.521-.675-1.378-.615-1.41-.649-1.437-.674-1.833-.843-1.917-.907c-.676-.331-1.359-.642-2.035-.979l-1.716-.843a285.298 285.298 0 0 1-80.906-60.16A1.866 1.866 0 0 0 17 85.437l.058 86.999v7.06a12.26 12.26 0 0 0 5.441 10.21 134.698 134.698 0 0 0 75.01 22.579Z"/><path fill="#133C9A" d="M247.51 89.657a78.21 78.21 0 0 0-57.72-4.356c-.54.169-1.079.337-1.638.532a80.78 80.78 0 0 0-14.385 6.58 72.418 72.418 0 0 0-5.473 3.546 71.813 71.813 0 0 0-7.559 6.074c-.676.622-1.32 1.238-2.002 1.88l-3.439 3.378-2.45 2.424-2.678 2.639-2.568 2.528-2.736 2.703-3.185 3.151-2.34 2.308-.793.758c-.379.383-.765.759-1.157 1.128l-.566.564-.871.811-.988.907a136.713 136.713 0 0 1-28.145 19.876l1.833.843 1.443.681 1.411.648 1.378.616 1.521.674 1.755.759 1.69.706 2.197.901 1.774.726 2.737 1.102c.845.338 1.722.675 2.6 1.012.65.253 1.293.473 1.943.732 1.125.422 2.256.811 3.354 1.232l1.69.622c.793.279 1.58.564 2.405.843l1.97.674c.955.311 1.917.649 2.905.96 1.014.337 2.028.648 3.042.985 1.242.389 2.509.759 3.751 1.148a342.56 342.56 0 0 0 7.585 2.139c.624.168 1.216.311 1.833.48 1.157.278 2.314.505 3.471.732 1.326.221 2.652.422 3.978.558 4.871.561 9.796.456 14.638-.311a54.63 54.63 0 0 0 6.058-1.291 49.55 49.55 0 0 0 7.475-2.696 51.081 51.081 0 0 0 5.785-3.067c.618-.369 1.177-.758 1.742-1.128.904-.616 1.807-1.231 2.678-1.912a36.448 36.448 0 0 0 2.204-1.77 54.157 54.157 0 0 0 7.475-7.909 60.361 60.361 0 0 0 5.414-8.44l1.32-2.607 11.791-23.428.136-.285a76.913 76.913 0 0 1 15.711-22.36Z"/></svg>
