<svg xmlns="http://www.w3.org/2000/svg" width="256" height="256" fill="none"><path fill="#00d6b9" d="M137 126v-1l2-1v-1l3-2 3-3 3-3 2-3 3-2 2-3 4-3 2-2 4-3 9-7 5-3 9-3 2-1a135 135 0 0 0-26-51 12 12 0 0 0-9-4H56l-2 1 1 2a288 288 0 0 1 82 93"/><path fill="#3370ff" d="M98 212c51 0 95-28 118-69l3-5-6 9-4 4-6 5-2 2-4 3-11 4-6 2h-15l-4-1h-3l-2-1-5-1-3-1-4-1-3-1-3-1-1-1-3-1h-2l-3-2h-2l-2-1-3-1-2-1-2-1-2-1h-2l-1-1-2-1h-1l-1-1-2-1-2-1-2-1-2-1a285 285 0 0 1-81-60l-3 1v94a12 12 0 0 0 5 11 135 135 0 0 0 76 22"/><path fill="#133c9a" d="M248 90a78 78 0 0 0-58-5l-2 1-14 6-6 4-7 6-2 2-4 3-2 3-3 2-2 3-3 3-3 3-3 2v1l-2 1-1 1-1 1a137 137 0 0 1-28 20l2 1 1 1h2l1 1 1 1h2l2 1 2 1 2 1 3 1 2 1h2l3 2h2l3 1 2 1 2 1 3 1 4 1 8 2 2 1 7 1h15l6-2 7-2 6-4 2-1 2-2 3-1 7-8 6-9 1-2 12-24a77 77 0 0 1 16-22"/></svg>
