<svg xmlns="http://www.w3.org/2000/svg" width="256" height="256" preserveAspectRatio="xMidYMid"><path fill="#1ed760" d="M128 0C57.3 0 0 57.3 0 128s57.3 128 128 128 128-57.3 128-128C256 57.31 198.7 0 128 0m58.7 184.61a7.97 7.97 0 0 1-10.98 2.65c-30.05-18.36-67.88-22.52-112.44-12.34a7.98 7.98 0 0 1-3.55-15.56c48.76-11.14 90.58-6.34 124.32 14.28a8 8 0 0 1 2.65 10.97m15.67-34.85a10 10 0 0 1-13.73 3.29c-34.4-21.15-86.85-27.27-127.55-14.92a10 10 0 0 1-12.45-6.65 10 10 0 0 1 6.65-12.45c46.49-14.1 104.28-7.27 143.79 17.01a10 10 0 0 1 3.29 13.72m1.34-36.3c-41.25-24.5-109.32-26.75-148.7-14.8a11.97 11.97 0 1 1-6.95-22.9c45.21-13.73 120.37-11.08 167.87 17.12a11.96 11.96 0 1 1-12.21 20.6z"/></svg>
