<svg width="512" height="512" viewBox="0 0 512 512" fill="none" xmlns="http://www.w3.org/2000/svg">
<g clip-path="url(#clip0)">
<path d="M181.196 399.355C107.777 399.355 82.7889 306.377 77.1898 288.289C63.1288 242.869 58.8543 201.956 58.4018 197.662C55.7908 172.887 75.6339 155.647 97.412 155.647C113.902 155.647 133.04 165.531 135.575 189.513C136.015 193.547 139.367 228.336 151.227 266.243C163.603 305.805 176.733 321.019 186.188 321.019C201.457 321.019 210.773 281.747 219.009 244.353C225.077 216.804 231.636 189.043 244.585 164.383C267.114 121.483 301.157 111.5 330.567 111.5C395.055 111.5 427.331 186.319 427.331 205.704C427.331 238.099 400.946 246.362 389.51 246.362C364.497 246.362 356.018 229.579 348.881 214.869C342.462 201.635 335.757 190.631 327.089 190.631C324.241 190.631 321.601 192.076 319.16 194.561C297.615 216.489 290.391 331.205 247.313 375.049C223.431 399.355 197.446 399.355 181.196 399.355Z" fill="url(#paint0_linear)"/>
<path d="M181.196 399.355C107.777 399.355 82.7889 306.377 77.1898 288.289C63.1288 242.869 58.8543 201.956 58.4018 197.662C55.7908 172.887 75.6339 155.647 97.412 155.647C113.902 155.647 133.04 165.531 135.575 189.513C136.015 193.547 139.367 228.336 151.227 266.243C163.603 305.805 176.733 321.019 186.188 321.019C201.457 321.019 210.773 281.747 219.009 244.353C225.077 216.804 231.636 189.043 244.585 164.383C267.114 121.483 301.157 111.5 330.567 111.5C395.055 111.5 427.331 186.319 427.331 205.704C427.331 238.099 400.946 246.362 389.51 246.362C364.497 246.362 356.018 229.579 348.881 214.869C342.462 201.635 335.757 190.631 327.089 190.631C324.241 190.631 321.601 192.076 319.16 194.561C297.615 216.489 290.391 331.205 247.313 375.049C223.431 399.355 197.446 399.355 181.196 399.355Z" fill="url(#paint1_radial)"/>
<path d="M181.196 399.355C107.777 399.355 82.7889 306.377 77.1898 288.289C63.1288 242.869 58.8543 201.956 58.4018 197.662C55.7908 172.887 75.6339 155.647 97.412 155.647C113.902 155.647 133.04 165.531 135.575 189.513C136.015 193.547 139.367 228.336 151.227 266.243C163.603 305.805 176.733 321.019 186.188 321.019C201.457 321.019 210.773 281.747 219.009 244.353C225.077 216.804 231.636 189.043 244.585 164.383C267.114 121.483 301.157 111.5 330.567 111.5C395.055 111.5 427.331 186.319 427.331 205.704C427.331 238.099 400.946 246.362 389.51 246.362C364.497 246.362 356.018 229.579 348.881 214.869C342.462 201.635 335.757 190.631 327.089 190.631C324.241 190.631 321.601 192.076 319.16 194.561C297.615 216.489 290.391 331.205 247.313 375.049C223.431 399.355 197.446 399.355 181.196 399.355Z" fill="url(#paint2_radial)"/>
<path d="M181.196 399.355C107.777 399.355 82.7889 306.377 77.1898 288.289C63.1288 242.869 58.8543 201.956 58.4018 197.662C55.7908 172.887 75.6339 155.647 97.412 155.647C113.902 155.647 133.04 165.531 135.575 189.513C136.015 193.547 139.367 228.336 151.227 266.243C163.603 305.805 176.733 321.019 186.188 321.019C201.457 321.019 210.773 281.747 219.009 244.353C225.077 216.804 231.636 189.043 244.585 164.383C267.114 121.483 301.157 111.5 330.567 111.5C395.055 111.5 427.331 186.319 427.331 205.704C427.331 238.099 400.946 246.362 389.51 246.362C364.497 246.362 356.018 229.579 348.881 214.869C342.462 201.635 335.757 190.631 327.089 190.631C324.241 190.631 321.601 192.076 319.16 194.561C297.615 216.489 290.391 331.205 247.313 375.049C223.431 399.355 197.446 399.355 181.196 399.355Z" fill="url(#paint3_radial)"/>
<path d="M181.196 399.355C107.777 399.355 82.7889 306.377 77.1898 288.289C63.1288 242.869 58.8543 201.956 58.4018 197.662C55.7908 172.887 75.6339 155.647 97.412 155.647C113.902 155.647 133.04 165.531 135.575 189.513C136.015 193.547 139.367 228.336 151.227 266.243C163.603 305.805 176.733 321.019 186.188 321.019C201.457 321.019 210.773 281.747 219.009 244.353C225.077 216.804 231.636 189.043 244.585 164.383C267.114 121.483 301.157 111.5 330.567 111.5C395.055 111.5 427.331 186.319 427.331 205.704C427.331 238.099 400.946 246.362 389.51 246.362C364.497 246.362 356.018 229.579 348.881 214.869C342.462 201.635 335.757 190.631 327.089 190.631C324.241 190.631 321.601 192.076 319.16 194.561C297.615 216.489 290.391 331.205 247.313 375.049C223.431 399.355 197.446 399.355 181.196 399.355Z" fill="url(#paint4_radial)"/>
<path d="M181.196 399.355C107.777 399.355 82.7889 306.377 77.1898 288.289C63.1288 242.869 58.8543 201.956 58.4018 197.662C55.7908 172.887 75.6339 155.647 97.412 155.647C113.902 155.647 133.04 165.531 135.575 189.513C136.015 193.547 139.367 228.336 151.227 266.243C163.603 305.805 176.733 321.019 186.188 321.019C201.457 321.019 210.773 281.747 219.009 244.353C225.077 216.804 231.636 189.043 244.585 164.383C267.114 121.483 301.157 111.5 330.567 111.5C395.055 111.5 427.331 186.319 427.331 205.704C427.331 238.099 400.946 246.362 389.51 246.362C364.497 246.362 356.018 229.579 348.881 214.869C342.462 201.635 335.757 190.631 327.089 190.631C324.241 190.631 321.601 192.076 319.16 194.561C297.615 216.489 290.391 331.205 247.313 375.049C223.431 399.355 197.446 399.355 181.196 399.355Z" fill="url(#paint5_radial)"/>
<path d="M181.196 399.355C107.777 399.355 82.7889 306.377 77.1898 288.289C63.1288 242.869 58.8543 201.956 58.4018 197.662C55.7908 172.887 75.6339 155.647 97.412 155.647C113.902 155.647 133.04 165.531 135.575 189.513C136.015 193.547 139.367 228.336 151.227 266.243C163.603 305.805 176.733 321.019 186.188 321.019C201.457 321.019 210.773 281.747 219.009 244.353C225.077 216.804 231.636 189.043 244.585 164.383C267.114 121.483 301.157 111.5 330.567 111.5C395.055 111.5 427.331 186.319 427.331 205.704C427.331 238.099 400.946 246.362 389.51 246.362C364.497 246.362 356.018 229.579 348.881 214.869C342.462 201.635 335.757 190.631 327.089 190.631C324.241 190.631 321.601 192.076 319.16 194.561C297.615 216.489 290.391 331.205 247.313 375.049C223.431 399.355 197.446 399.355 181.196 399.355Z" fill="url(#paint6_radial)"/>
<path d="M181.196 399.355C107.777 399.355 82.7889 306.377 77.1898 288.289C63.1288 242.869 58.8543 201.956 58.4018 197.662C55.7908 172.887 75.6339 155.647 97.412 155.647C113.902 155.647 133.04 165.531 135.575 189.513C136.015 193.547 139.367 228.336 151.227 266.243C163.603 305.805 176.733 321.019 186.188 321.019C201.457 321.019 210.773 281.747 219.009 244.353C225.077 216.804 231.636 189.043 244.585 164.383C267.114 121.483 301.157 111.5 330.567 111.5C395.055 111.5 427.331 186.319 427.331 205.704C427.331 238.099 400.946 246.362 389.51 246.362C364.497 246.362 356.018 229.579 348.881 214.869C342.462 201.635 335.757 190.631 327.089 190.631C324.241 190.631 321.601 192.076 319.16 194.561C297.615 216.489 290.391 331.205 247.313 375.049C223.431 399.355 197.446 399.355 181.196 399.355Z" fill="url(#paint7_linear)"/>
<path d="M181.196 399.355C107.777 399.355 82.7889 306.377 77.1898 288.289C63.1288 242.869 58.8543 201.956 58.4018 197.662C55.7908 172.887 75.6339 155.647 97.412 155.647C113.902 155.647 133.04 165.531 135.575 189.513C136.015 193.547 139.367 228.336 151.227 266.243C163.603 305.805 176.733 321.019 186.188 321.019C201.457 321.019 210.773 281.747 219.009 244.353C225.077 216.804 231.636 189.043 244.585 164.383C267.114 121.483 301.157 111.5 330.567 111.5C395.055 111.5 427.331 186.319 427.331 205.704C427.331 238.099 400.946 246.362 389.51 246.362C364.497 246.362 356.018 229.579 348.881 214.869C342.462 201.635 335.757 190.631 327.089 190.631C324.241 190.631 321.601 192.076 319.16 194.561C297.615 216.489 290.391 331.205 247.313 375.049C223.431 399.355 197.446 399.355 181.196 399.355Z" fill="url(#paint8_radial)"/>
<path d="M330.571 111.5C301.161 111.5 267.118 121.483 244.589 164.383C231.639 189.043 225.081 216.804 219.013 244.353C217.015 253.419 214.954 262.594 212.762 271.295V395.941C223.891 392.788 235.846 386.722 247.317 375.049C290.394 331.205 297.619 216.489 319.164 194.561C321.605 192.076 324.245 190.631 327.093 190.631C335.761 190.631 342.466 201.635 348.885 214.869C356.022 229.579 364.501 246.362 389.514 246.362C400.949 246.362 427.335 238.099 427.335 205.704C427.335 186.319 395.059 111.5 330.571 111.5Z" fill="url(#paint9_radial)"/>
<path d="M181.196 399.355C107.777 399.355 82.7889 306.377 77.1898 288.289C63.1288 242.869 58.8543 201.956 58.4018 197.662C55.7908 172.887 75.6339 155.647 97.412 155.647C113.902 155.647 133.04 165.531 135.575 189.513C136.015 193.547 139.367 228.336 151.227 266.243C163.603 305.805 176.733 321.019 186.188 321.019C201.457 321.019 210.773 281.747 219.009 244.353C225.077 216.804 231.636 189.043 244.585 164.383C267.114 121.483 301.157 111.5 330.567 111.5C395.055 111.5 427.331 186.319 427.331 205.704C427.331 238.099 400.946 246.362 389.51 246.362C364.497 246.362 356.018 229.579 348.881 214.869C342.462 201.635 335.757 190.631 327.089 190.631C324.241 190.631 321.601 192.076 319.16 194.561C297.615 216.489 290.391 331.205 247.313 375.049C223.431 399.355 197.446 399.355 181.196 399.355Z" fill="url(#paint10_radial)"/>
<path d="M181.196 399.355C107.777 399.355 82.7889 306.377 77.1898 288.289C63.1288 242.869 58.8543 201.956 58.4018 197.662C55.7908 172.887 75.6339 155.647 97.412 155.647C113.902 155.647 133.04 165.531 135.575 189.513C136.015 193.547 139.367 228.336 151.227 266.243C163.603 305.805 176.733 321.019 186.188 321.019C201.457 321.019 210.773 281.747 219.009 244.353C225.077 216.804 231.636 189.043 244.585 164.383C267.114 121.483 301.157 111.5 330.567 111.5C395.055 111.5 427.331 186.319 427.331 205.704C427.331 238.099 400.946 246.362 389.51 246.362C364.497 246.362 356.018 229.579 348.881 214.869C342.462 201.635 335.757 190.631 327.089 190.631C324.241 190.631 321.601 192.076 319.16 194.561C297.615 216.489 290.391 331.205 247.313 375.049C223.431 399.355 197.446 399.355 181.196 399.355Z" fill="url(#paint11_radial)"/>
<path d="M181.196 399.355C107.777 399.355 82.7889 306.377 77.1898 288.289C63.1288 242.869 58.8543 201.956 58.4018 197.662C55.7908 172.887 75.6339 155.647 97.412 155.647C113.902 155.647 133.04 165.531 135.575 189.513C136.015 193.547 139.367 228.336 151.227 266.243C163.603 305.805 176.733 321.019 186.188 321.019C201.457 321.019 210.773 281.747 219.009 244.353C225.077 216.804 231.636 189.043 244.585 164.383C267.114 121.483 301.157 111.5 330.567 111.5C395.055 111.5 427.331 186.319 427.331 205.704C427.331 238.099 400.946 246.362 389.51 246.362C364.497 246.362 356.018 229.579 348.881 214.869C342.462 201.635 335.757 190.631 327.089 190.631C324.241 190.631 321.601 192.076 319.16 194.561C297.615 216.489 290.391 331.205 247.313 375.049C223.431 399.355 197.446 399.355 181.196 399.355Z" fill="url(#paint12_radial)"/>
<path d="M181.196 399.355C107.777 399.355 82.7889 306.377 77.1898 288.289C63.1288 242.869 58.8543 201.956 58.4018 197.662C55.7908 172.887 75.6339 155.647 97.412 155.647C113.902 155.647 133.04 165.531 135.575 189.513C136.015 193.547 139.367 228.336 151.227 266.243C163.603 305.805 176.733 321.019 186.188 321.019C201.457 321.019 210.773 281.747 219.009 244.353C225.077 216.804 231.636 189.043 244.585 164.383C267.114 121.483 301.157 111.5 330.567 111.5C395.055 111.5 427.331 186.319 427.331 205.704C427.331 238.099 400.946 246.362 389.51 246.362C364.497 246.362 356.018 229.579 348.881 214.869C342.462 201.635 335.757 190.631 327.089 190.631C324.241 190.631 321.601 192.076 319.16 194.561C297.615 216.489 290.391 331.205 247.313 375.049C223.431 399.355 197.446 399.355 181.196 399.355Z" fill="url(#paint13_radial)"/>
<path d="M181.196 399.355C107.777 399.355 82.7889 306.377 77.1898 288.289C63.1288 242.869 58.8543 201.956 58.4018 197.662C55.7908 172.887 75.6339 155.647 97.412 155.647C113.902 155.647 133.04 165.531 135.575 189.513C136.015 193.547 139.367 228.336 151.227 266.243C163.603 305.805 176.733 321.019 186.188 321.019C201.457 321.019 210.773 281.747 219.009 244.353C225.077 216.804 231.636 189.043 244.585 164.383C267.114 121.483 301.157 111.5 330.567 111.5C395.055 111.5 427.331 186.319 427.331 205.704C427.331 238.099 400.946 246.362 389.51 246.362C364.497 246.362 356.018 229.579 348.881 214.869C342.462 201.635 335.757 190.631 327.089 190.631C324.241 190.631 321.601 192.076 319.16 194.561C297.615 216.489 290.391 331.205 247.313 375.049C223.431 399.355 197.446 399.355 181.196 399.355Z" fill="url(#paint14_radial)"/>
<path d="M415.439 155.647C412.532 155.647 409.608 155.921 406.74 156.487C420.372 176.171 427.193 196.792 427.193 205.702C427.193 238.097 400.807 246.36 389.371 246.36C380.447 246.36 373.629 244.222 368.224 240.806C368.174 241.008 368.124 241.21 368.074 241.412C366.466 247.842 365.198 254.878 363.002 261.726C358.78 274.892 353.085 289.932 347.003 301.57C340.448 314.116 333.958 321.457 326.222 321.072C317.425 320.634 310.292 309.279 301.427 277.186C298.568 266.838 295.921 255.493 293.467 244.353C287.382 216.722 279.912 188.937 267.14 164.383C246.28 124.282 210.694 111.5 182.284 111.5C155.937 111.5 136.253 123.991 120.79 139.729C116.516 144.079 111.849 149.938 107.16 156.825C120.647 160.078 133.4 170.244 135.437 189.511C135.838 193.185 138.653 222.361 148.109 256.172C150.822 247.695 154.778 235.141 163.969 214.869C168.473 205.585 172.538 199.463 176.205 195.73C179.569 192.307 182.598 190.893 185.325 190.893C188.266 190.893 198.309 193.589 208.086 227.945C220.211 270.547 229.235 338.348 263.614 374.347C278.777 390.227 299.997 400.5 329.406 400.5C355.211 400.5 376.725 389.119 392.065 373.288C417.286 347.256 431.106 304.216 436.035 288.289C450.063 242.978 453.992 201.998 454.449 197.662C457.06 172.887 436.217 155.647 415.439 155.647Z" fill="#316AFF"/>
<path d="M415.439 155.647C412.532 155.647 409.608 155.921 406.74 156.487C420.372 176.171 427.193 196.792 427.193 205.702C427.193 238.097 400.807 246.36 389.371 246.36C380.447 246.36 373.629 244.222 368.224 240.806C368.174 241.008 368.124 241.21 368.074 241.412C366.466 247.842 365.198 254.878 363.002 261.726C358.78 274.892 353.085 289.932 347.003 301.57C340.448 314.116 333.958 321.457 326.222 321.072C317.425 320.634 310.292 309.279 301.427 277.186C298.568 266.838 295.921 255.493 293.467 244.353C287.382 216.722 279.912 188.937 267.14 164.383C246.28 124.282 210.694 111.5 182.284 111.5C155.937 111.5 136.253 123.991 120.79 139.729C116.516 144.079 111.849 149.938 107.16 156.825C120.647 160.078 133.4 170.244 135.437 189.511C135.838 193.185 138.653 222.361 148.109 256.172C150.822 247.695 154.778 235.141 163.969 214.869C168.473 205.585 172.538 199.463 176.205 195.73C179.569 192.307 182.598 190.893 185.325 190.893C188.266 190.893 198.309 193.589 208.086 227.945C220.211 270.547 229.235 338.348 263.614 374.347C278.777 390.227 299.997 400.5 329.406 400.5C355.211 400.5 376.725 389.119 392.065 373.288C417.286 347.256 431.106 304.216 436.035 288.289C450.063 242.978 453.992 201.998 454.449 197.662C457.06 172.887 436.217 155.647 415.439 155.647Z" fill="url(#paint15_radial)"/>
<path d="M415.439 155.647C412.532 155.647 409.608 155.921 406.74 156.487C420.372 176.171 427.193 196.792 427.193 205.702C427.193 238.097 400.807 246.36 389.371 246.36C380.447 246.36 373.629 244.222 368.224 240.806C368.174 241.008 368.124 241.21 368.074 241.412C366.466 247.842 365.198 254.878 363.002 261.726C358.78 274.892 353.085 289.932 347.003 301.57C340.448 314.116 333.958 321.457 326.222 321.072C317.425 320.634 310.292 309.279 301.427 277.186C298.568 266.838 295.921 255.493 293.467 244.353C287.382 216.722 279.912 188.937 267.14 164.383C246.28 124.282 210.694 111.5 182.284 111.5C155.937 111.5 136.253 123.991 120.79 139.729C116.516 144.079 111.849 149.938 107.16 156.825C120.647 160.078 133.4 170.244 135.437 189.511C135.838 193.185 138.653 222.361 148.109 256.172C150.822 247.695 154.778 235.141 163.969 214.869C168.473 205.585 172.538 199.463 176.205 195.73C179.569 192.307 182.598 190.893 185.325 190.893C188.266 190.893 198.309 193.589 208.086 227.945C220.211 270.547 229.235 338.348 263.614 374.347C278.777 390.227 299.997 400.5 329.406 400.5C355.211 400.5 376.725 389.119 392.065 373.288C417.286 347.256 431.106 304.216 436.035 288.289C450.063 242.978 453.992 201.998 454.449 197.662C457.06 172.887 436.217 155.647 415.439 155.647Z" fill="url(#paint16_radial)"/>
<path d="M415.439 155.647C412.532 155.647 409.608 155.921 406.74 156.487C420.372 176.171 427.193 196.792 427.193 205.702C427.193 238.097 400.807 246.36 389.371 246.36C380.447 246.36 373.629 244.222 368.224 240.806C368.174 241.008 368.124 241.21 368.074 241.412C366.466 247.842 365.198 254.878 363.002 261.726C358.78 274.892 353.085 289.932 347.003 301.57C340.448 314.116 333.958 321.457 326.222 321.072C317.425 320.634 310.292 309.279 301.427 277.186C298.568 266.838 295.921 255.493 293.467 244.353C287.382 216.722 279.912 188.937 267.14 164.383C246.28 124.282 210.694 111.5 182.284 111.5C155.937 111.5 136.253 123.991 120.79 139.729C116.516 144.079 111.849 149.938 107.16 156.825C120.647 160.078 133.4 170.244 135.437 189.511C135.838 193.185 138.653 222.361 148.109 256.172C150.822 247.695 154.778 235.141 163.969 214.869C168.473 205.585 172.538 199.463 176.205 195.73C179.569 192.307 182.598 190.893 185.325 190.893C188.266 190.893 198.309 193.589 208.086 227.945C220.211 270.547 229.235 338.348 263.614 374.347C278.777 390.227 299.997 400.5 329.406 400.5C355.211 400.5 376.725 389.119 392.065 373.288C417.286 347.256 431.106 304.216 436.035 288.289C450.063 242.978 453.992 201.998 454.449 197.662C457.06 172.887 436.217 155.647 415.439 155.647Z" fill="url(#paint17_radial)"/>
<path d="M415.439 155.647C412.532 155.647 409.608 155.921 406.74 156.487C420.372 176.171 427.193 196.792 427.193 205.702C427.193 238.097 400.807 246.36 389.371 246.36C380.447 246.36 373.629 244.222 368.224 240.806C368.174 241.008 368.124 241.21 368.074 241.412C366.466 247.842 365.198 254.878 363.002 261.726C358.78 274.892 353.085 289.932 347.003 301.57C340.448 314.116 333.958 321.457 326.222 321.072C317.425 320.634 310.292 309.279 301.427 277.186C298.568 266.838 295.921 255.493 293.467 244.353C287.382 216.722 279.912 188.937 267.14 164.383C246.28 124.282 210.694 111.5 182.284 111.5C155.937 111.5 136.253 123.991 120.79 139.729C116.516 144.079 111.849 149.938 107.16 156.825C120.647 160.078 133.4 170.244 135.437 189.511C135.838 193.185 138.653 222.361 148.109 256.172C150.822 247.695 154.778 235.141 163.969 214.869C168.473 205.585 172.538 199.463 176.205 195.73C179.569 192.307 182.598 190.893 185.325 190.893C188.266 190.893 198.309 193.589 208.086 227.945C220.211 270.547 229.235 338.348 263.614 374.347C278.777 390.227 299.997 400.5 329.406 400.5C355.211 400.5 376.725 389.119 392.065 373.288C417.286 347.256 431.106 304.216 436.035 288.289C450.063 242.978 453.992 201.998 454.449 197.662C457.06 172.887 436.217 155.647 415.439 155.647Z" fill="url(#paint18_radial)"/>
<path d="M415.439 155.647C412.532 155.647 409.608 155.921 406.74 156.487C420.372 176.171 427.193 196.792 427.193 205.702C427.193 238.097 400.807 246.36 389.371 246.36C380.447 246.36 373.629 244.222 368.224 240.806C368.174 241.008 368.124 241.21 368.074 241.412C366.466 247.842 365.198 254.878 363.002 261.726C358.78 274.892 353.085 289.932 347.003 301.57C340.448 314.116 333.958 321.457 326.222 321.072C317.425 320.634 310.292 309.279 301.427 277.186C298.568 266.838 295.921 255.493 293.467 244.353C287.382 216.722 279.912 188.937 267.14 164.383C246.28 124.282 210.694 111.5 182.284 111.5C155.937 111.5 136.253 123.991 120.79 139.729C116.516 144.079 111.849 149.938 107.16 156.825C120.647 160.078 133.4 170.244 135.437 189.511C135.838 193.185 138.653 222.361 148.109 256.172C150.822 247.695 154.778 235.141 163.969 214.869C168.473 205.585 172.538 199.463 176.205 195.73C179.569 192.307 182.598 190.893 185.325 190.893C188.266 190.893 198.309 193.589 208.086 227.945C220.211 270.547 229.235 338.348 263.614 374.347C278.777 390.227 299.997 400.5 329.406 400.5C355.211 400.5 376.725 389.119 392.065 373.288C417.286 347.256 431.106 304.216 436.035 288.289C450.063 242.978 453.992 201.998 454.449 197.662C457.06 172.887 436.217 155.647 415.439 155.647Z" fill="url(#paint19_radial)"/>
<path d="M415.439 155.647C412.532 155.647 409.608 155.921 406.74 156.487C420.372 176.171 427.193 196.792 427.193 205.702C427.193 238.097 400.807 246.36 389.371 246.36C380.447 246.36 373.629 244.222 368.224 240.806C368.174 241.008 368.124 241.21 368.074 241.412C366.466 247.842 365.198 254.878 363.002 261.726C358.78 274.892 353.085 289.932 347.003 301.57C340.448 314.116 333.958 321.457 326.222 321.072C317.425 320.634 310.292 309.279 301.427 277.186C298.568 266.838 295.921 255.493 293.467 244.353C287.382 216.722 279.912 188.937 267.14 164.383C246.28 124.282 210.694 111.5 182.284 111.5C155.937 111.5 136.253 123.991 120.79 139.729C116.516 144.079 111.849 149.938 107.16 156.825C120.647 160.078 133.4 170.244 135.437 189.511C135.838 193.185 138.653 222.361 148.109 256.172C150.822 247.695 154.778 235.141 163.969 214.869C168.473 205.585 172.538 199.463 176.205 195.73C179.569 192.307 182.598 190.893 185.325 190.893C188.266 190.893 198.309 193.589 208.086 227.945C220.211 270.547 229.235 338.348 263.614 374.347C278.777 390.227 299.997 400.5 329.406 400.5C355.211 400.5 376.725 389.119 392.065 373.288C417.286 347.256 431.106 304.216 436.035 288.289C450.063 242.978 453.992 201.998 454.449 197.662C457.06 172.887 436.217 155.647 415.439 155.647Z" fill="url(#paint20_radial)"/>
<path d="M415.439 155.647C412.532 155.647 409.608 155.921 406.74 156.487C420.372 176.171 427.193 196.792 427.193 205.702C427.193 238.097 400.807 246.36 389.371 246.36C380.447 246.36 373.629 244.222 368.224 240.806C368.174 241.008 368.124 241.21 368.074 241.412C366.466 247.842 365.198 254.878 363.002 261.726C358.78 274.892 353.085 289.932 347.003 301.57C340.448 314.116 333.958 321.457 326.222 321.072C317.425 320.634 310.292 309.279 301.427 277.186C298.568 266.838 295.921 255.493 293.467 244.353C287.382 216.722 279.912 188.937 267.14 164.383C246.28 124.282 210.694 111.5 182.284 111.5C155.937 111.5 136.253 123.991 120.79 139.729C116.516 144.079 111.849 149.938 107.16 156.825C120.647 160.078 133.4 170.244 135.437 189.511C135.838 193.185 138.653 222.361 148.109 256.172C150.822 247.695 154.778 235.141 163.969 214.869C168.473 205.585 172.538 199.463 176.205 195.73C179.569 192.307 182.598 190.893 185.325 190.893C188.266 190.893 198.309 193.589 208.086 227.945C220.211 270.547 229.235 338.348 263.614 374.347C278.777 390.227 299.997 400.5 329.406 400.5C355.211 400.5 376.725 389.119 392.065 373.288C417.286 347.256 431.106 304.216 436.035 288.289C450.063 242.978 453.992 201.998 454.449 197.662C457.06 172.887 436.217 155.647 415.439 155.647Z" fill="url(#paint21_radial)"/>
<path d="M415.439 155.647C412.532 155.647 409.608 155.921 406.74 156.487C420.372 176.171 427.193 196.792 427.193 205.702C427.193 238.097 400.807 246.36 389.371 246.36C380.447 246.36 373.629 244.222 368.224 240.806C368.174 241.008 368.124 241.21 368.074 241.412C366.466 247.842 365.198 254.878 363.002 261.726C358.78 274.892 353.085 289.932 347.003 301.57C340.448 314.116 333.958 321.457 326.222 321.072C317.425 320.634 310.292 309.279 301.427 277.186C298.568 266.838 295.921 255.493 293.467 244.353C287.382 216.722 279.912 188.937 267.14 164.383C246.28 124.282 210.694 111.5 182.284 111.5C155.937 111.5 136.253 123.991 120.79 139.729C116.516 144.079 111.849 149.938 107.16 156.825C120.647 160.078 133.4 170.244 135.437 189.511C135.838 193.185 138.653 222.361 148.109 256.172C150.822 247.695 154.778 235.141 163.969 214.869C168.473 205.585 172.538 199.463 176.205 195.73C179.569 192.307 182.598 190.893 185.325 190.893C188.266 190.893 198.309 193.589 208.086 227.945C220.211 270.547 229.235 338.348 263.614 374.347C278.777 390.227 299.997 400.5 329.406 400.5C355.211 400.5 376.725 389.119 392.065 373.288C417.286 347.256 431.106 304.216 436.035 288.289C450.063 242.978 453.992 201.998 454.449 197.662C457.06 172.887 436.217 155.647 415.439 155.647Z" fill="url(#paint22_radial)"/>
<path d="M415.439 155.647C412.532 155.647 409.608 155.921 406.74 156.487C420.372 176.171 427.193 196.792 427.193 205.702C427.193 238.097 400.807 246.36 389.371 246.36C380.447 246.36 373.629 244.222 368.224 240.806C368.174 241.008 368.124 241.21 368.074 241.412C366.466 247.842 365.198 254.878 363.002 261.726C358.78 274.892 353.085 289.932 347.003 301.57C340.448 314.116 333.958 321.457 326.222 321.072C317.425 320.634 310.292 309.279 301.427 277.186C298.568 266.838 295.921 255.493 293.467 244.353C287.382 216.722 279.912 188.937 267.14 164.383C246.28 124.282 210.694 111.5 182.284 111.5C155.937 111.5 136.253 123.991 120.79 139.729C116.516 144.079 111.849 149.938 107.16 156.825C120.647 160.078 133.4 170.244 135.437 189.511C135.838 193.185 138.653 222.361 148.109 256.172C150.822 247.695 154.778 235.141 163.969 214.869C168.473 205.585 172.538 199.463 176.205 195.73C179.569 192.307 182.598 190.893 185.325 190.893C188.266 190.893 198.309 193.589 208.086 227.945C220.211 270.547 229.235 338.348 263.614 374.347C278.777 390.227 299.997 400.5 329.406 400.5C355.211 400.5 376.725 389.119 392.065 373.288C417.286 347.256 431.106 304.216 436.035 288.289C450.063 242.978 453.992 201.998 454.449 197.662C457.06 172.887 436.217 155.647 415.439 155.647Z" fill="url(#paint23_radial)"/>
<path d="M415.439 155.647C412.532 155.647 409.608 155.921 406.74 156.487C420.372 176.171 427.193 196.792 427.193 205.702C427.193 238.097 400.807 246.36 389.371 246.36C380.447 246.36 373.629 244.222 368.224 240.806C368.174 241.008 368.124 241.21 368.074 241.412C366.466 247.842 365.198 254.878 363.002 261.726C358.78 274.892 353.085 289.932 347.003 301.57C340.448 314.116 333.958 321.457 326.222 321.072C317.425 320.634 310.292 309.279 301.427 277.186C298.568 266.838 295.921 255.493 293.467 244.353C287.382 216.722 279.912 188.937 267.14 164.383C246.28 124.282 210.694 111.5 182.284 111.5C155.937 111.5 136.253 123.991 120.79 139.729C116.516 144.079 111.849 149.938 107.16 156.825C120.647 160.078 133.4 170.244 135.437 189.511C135.838 193.185 138.653 222.361 148.109 256.172C150.822 247.695 154.778 235.141 163.969 214.869C168.473 205.585 172.538 199.463 176.205 195.73C179.569 192.307 182.598 190.893 185.325 190.893C188.266 190.893 198.309 193.589 208.086 227.945C220.211 270.547 229.235 338.348 263.614 374.347C278.777 390.227 299.997 400.5 329.406 400.5C355.211 400.5 376.725 389.119 392.065 373.288C417.286 347.256 431.106 304.216 436.035 288.289C450.063 242.978 453.992 201.998 454.449 197.662C457.06 172.887 436.217 155.647 415.439 155.647Z" fill="url(#paint24_radial)"/>
<path d="M181.196 399.355C107.777 399.355 82.7889 306.377 77.1898 288.289C63.1288 242.869 58.8543 201.956 58.4018 197.662C55.7908 172.887 75.6339 155.647 97.412 155.647C113.902 155.647 133.04 165.531 135.575 189.513C136.015 193.547 139.367 228.336 151.227 266.243C163.603 305.805 176.733 321.019 186.188 321.019C201.457 321.019 210.773 281.747 219.009 244.353C225.077 216.804 231.636 189.043 244.585 164.383C267.114 121.483 301.157 111.5 330.567 111.5C395.055 111.5 427.331 186.319 427.331 205.704C427.331 238.099 400.946 246.362 389.51 246.362C364.497 246.362 356.018 229.579 348.881 214.869C342.462 201.635 335.757 190.631 327.089 190.631C324.241 190.631 321.601 192.076 319.16 194.561C297.615 216.489 290.391 331.205 247.313 375.049C223.431 399.355 197.446 399.355 181.196 399.355Z" fill="url(#paint25_linear)"/>
<path d="M181.196 399.355C107.777 399.355 82.7889 306.377 77.1898 288.289C63.1288 242.869 58.8543 201.956 58.4018 197.662C55.7908 172.887 75.6339 155.647 97.412 155.647C113.902 155.647 133.04 165.531 135.575 189.513C136.015 193.547 139.367 228.336 151.227 266.243C163.603 305.805 176.733 321.019 186.188 321.019C201.457 321.019 210.773 281.747 219.009 244.353C225.077 216.804 231.636 189.043 244.585 164.383C267.114 121.483 301.157 111.5 330.567 111.5C395.055 111.5 427.331 186.319 427.331 205.704C427.331 238.099 400.946 246.362 389.51 246.362C364.497 246.362 356.018 229.579 348.881 214.869C342.462 201.635 335.757 190.631 327.089 190.631C324.241 190.631 321.601 192.076 319.16 194.561C297.615 216.489 290.391 331.205 247.313 375.049C223.431 399.355 197.446 399.355 181.196 399.355Z" fill="url(#paint26_radial)"/>
<path d="M181.196 399.355C107.777 399.355 82.7889 306.377 77.1898 288.289C63.1288 242.869 58.8543 201.956 58.4018 197.662C55.7908 172.887 75.6339 155.647 97.412 155.647C113.902 155.647 133.04 165.531 135.575 189.513C136.015 193.547 139.367 228.336 151.227 266.243C163.603 305.805 176.733 321.019 186.188 321.019C201.457 321.019 210.773 281.747 219.009 244.353C225.077 216.804 231.636 189.043 244.585 164.383C267.114 121.483 301.157 111.5 330.567 111.5C395.055 111.5 427.331 186.319 427.331 205.704C427.331 238.099 400.946 246.362 389.51 246.362C364.497 246.362 356.018 229.579 348.881 214.869C342.462 201.635 335.757 190.631 327.089 190.631C324.241 190.631 321.601 192.076 319.16 194.561C297.615 216.489 290.391 331.205 247.313 375.049C223.431 399.355 197.446 399.355 181.196 399.355Z" fill="url(#paint27_linear)"/>
<path d="M181.196 399.355C107.777 399.355 82.7889 306.377 77.1898 288.289C63.1288 242.869 58.8543 201.956 58.4018 197.662C55.7908 172.887 75.6339 155.647 97.412 155.647C113.902 155.647 133.04 165.531 135.575 189.513C136.015 193.547 139.367 228.336 151.227 266.243C163.603 305.805 176.733 321.019 186.188 321.019C201.457 321.019 210.773 281.747 219.009 244.353C225.077 216.804 231.636 189.043 244.585 164.383C267.114 121.483 301.157 111.5 330.567 111.5C395.055 111.5 427.331 186.319 427.331 205.704C427.331 238.099 400.946 246.362 389.51 246.362C364.497 246.362 356.018 229.579 348.881 214.869C342.462 201.635 335.757 190.631 327.089 190.631C324.241 190.631 321.601 192.076 319.16 194.561C297.615 216.489 290.391 331.205 247.313 375.049C223.431 399.355 197.446 399.355 181.196 399.355Z" fill="url(#paint28_linear)"/>
<path d="M181.196 399.355C107.777 399.355 82.7889 306.377 77.1898 288.289C63.1288 242.869 58.8543 201.956 58.4018 197.662C55.7908 172.887 75.6339 155.647 97.412 155.647C113.902 155.647 133.04 165.531 135.575 189.513C136.015 193.547 139.367 228.336 151.227 266.243C163.603 305.805 176.733 321.019 186.188 321.019C201.457 321.019 210.773 281.747 219.009 244.353C225.077 216.804 231.636 189.043 244.585 164.383C267.114 121.483 301.157 111.5 330.567 111.5C395.055 111.5 427.331 186.319 427.331 205.704C427.331 238.099 400.946 246.362 389.51 246.362C364.497 246.362 356.018 229.579 348.881 214.869C342.462 201.635 335.757 190.631 327.089 190.631C324.241 190.631 321.601 192.076 319.16 194.561C297.615 216.489 290.391 331.205 247.313 375.049C223.431 399.355 197.446 399.355 181.196 399.355Z" fill="url(#paint29_radial)"/>
</g>
<defs>
<linearGradient id="paint0_linear" x1="387.159" y1="195.957" x2="127.733" y2="280.919" gradientUnits="userSpaceOnUse">
<stop stop-color="#5CEE64"/>
<stop offset="1" stop-color="#00BBFF"/>
</linearGradient>
<radialGradient id="paint1_radial" cx="0" cy="0" r="1" gradientUnits="userSpaceOnUse" gradientTransform="translate(209.088 265.007) rotate(-120.825) scale(170.078 142.686)">
<stop stop-color="#007383"/>
<stop offset="0.407867" stop-color="#00717E" stop-opacity="0.75"/>
<stop offset="0.874482" stop-color="#007281" stop-opacity="0"/>
</radialGradient>
<radialGradient id="paint2_radial" cx="0" cy="0" r="1" gradientUnits="userSpaceOnUse" gradientTransform="translate(320.722 233.349) rotate(-126.696) scale(138.687 91.0892)">
<stop stop-color="#218970"/>
<stop offset="0.459527" stop-color="#267E6A"/>
<stop offset="1" stop-color="#026C51" stop-opacity="0"/>
</radialGradient>
<radialGradient id="paint3_radial" cx="0" cy="0" r="1" gradientUnits="userSpaceOnUse" gradientTransform="translate(199.304 273.046) rotate(-107.446) scale(112.995 58.8009)">
<stop stop-color="#178697"/>
<stop offset="0.407867" stop-color="#17838F" stop-opacity="0.79"/>
<stop offset="0.874482" stop-color="#007281" stop-opacity="0"/>
</radialGradient>
<radialGradient id="paint4_radial" cx="0" cy="0" r="1" gradientUnits="userSpaceOnUse" gradientTransform="translate(249.478 272.443) rotate(-120.825) scale(286.879 88.4347)">
<stop stop-color="#25342F" stop-opacity="0.3"/>
<stop offset="1" stop-color="#25342F" stop-opacity="0"/>
</radialGradient>
<radialGradient id="paint5_radial" cx="0" cy="0" r="1" gradientUnits="userSpaceOnUse" gradientTransform="translate(300.599 236.496) rotate(85.1046) scale(108.085 61.2215)">
<stop stop-color="#056D4F"/>
<stop offset="0.232593" stop-color="#056C4E" stop-opacity="0.75"/>
<stop offset="0.598902" stop-color="#056C4E" stop-opacity="0.300824"/>
<stop offset="0.874482" stop-color="#056C4F" stop-opacity="0"/>
</radialGradient>
<radialGradient id="paint6_radial" cx="0" cy="0" r="1" gradientUnits="userSpaceOnUse" gradientTransform="translate(305.374 61.6927) rotate(57.1132) scale(127.006 66.5769)">
<stop stop-color="#22B67B"/>
<stop offset="0.407867" stop-color="#24BE82"/>
<stop offset="1" stop-color="#24BE82" stop-opacity="0.07"/>
</radialGradient>
<linearGradient id="paint7_linear" x1="-39.3862" y1="252.916" x2="144.414" y2="254.426" gradientUnits="userSpaceOnUse">
<stop stop-color="#09F8FF"/>
<stop offset="1" stop-color="#0BF7F9" stop-opacity="0"/>
</linearGradient>
<radialGradient id="paint8_radial" cx="0" cy="0" r="1" gradientUnits="userSpaceOnUse" gradientTransform="translate(0.0998016 87.1388) rotate(49.6893) scale(165.848 165.397)">
<stop stop-color="#09F8FF"/>
<stop offset="1" stop-color="#0BF7F9" stop-opacity="0"/>
</radialGradient>
<radialGradient id="paint9_radial" cx="0" cy="0" r="1" gradientUnits="userSpaceOnUse" gradientTransform="translate(132.847 3.591) rotate(48.0508) scale(336.36 335.781)">
<stop stop-color="#00B8FF"/>
<stop offset="0.745423" stop-color="#00B9FC" stop-opacity="0"/>
</radialGradient>
<radialGradient id="paint10_radial" cx="0" cy="0" r="1" gradientUnits="userSpaceOnUse" gradientTransform="translate(150.639 256.03) rotate(-107.446) scale(162.209 112.266)">
<stop stop-color="#00BCFF" stop-opacity="0.76"/>
<stop offset="0.57273" stop-color="#00BAFC" stop-opacity="0"/>
</radialGradient>
<radialGradient id="paint11_radial" cx="0" cy="0" r="1" gradientUnits="userSpaceOnUse" gradientTransform="translate(396.933 194.415) rotate(-129.512) scale(114.655 80.2489)">
<stop stop-color="#5FEC50"/>
<stop offset="1" stop-color="#3CC08E" stop-opacity="0"/>
</radialGradient>
<radialGradient id="paint12_radial" cx="0" cy="0" r="1" gradientUnits="userSpaceOnUse" gradientTransform="translate(380.535 268.305) rotate(-79.109) scale(34.7291 23.9896)">
<stop stop-color="#28855B"/>
<stop offset="1" stop-color="#14795C" stop-opacity="0"/>
</radialGradient>
<radialGradient id="paint13_radial" cx="0" cy="0" r="1" gradientUnits="userSpaceOnUse" gradientTransform="translate(378.863 265.748) rotate(-77.8959) scale(28.6297 39.9611)">
<stop stop-color="#28855B"/>
<stop offset="1" stop-color="#14795C" stop-opacity="0"/>
</radialGradient>
<radialGradient id="paint14_radial" cx="0" cy="0" r="1" gradientUnits="userSpaceOnUse" gradientTransform="translate(412.925 214.168) rotate(-132.751) scale(94.9176 66.6735)">
<stop stop-color="#5FF05B"/>
<stop offset="0.813285" stop-color="#5DE955" stop-opacity="0"/>
</radialGradient>
<radialGradient id="paint15_radial" cx="0" cy="0" r="1" gradientUnits="userSpaceOnUse" gradientTransform="translate(383.26 241.448) rotate(37.4938) scale(84.3935 117.347)">
<stop stop-color="#123AA8"/>
<stop offset="0.966119" stop-color="#123AA8" stop-opacity="0"/>
</radialGradient>
<radialGradient id="paint16_radial" cx="0" cy="0" r="1" gradientUnits="userSpaceOnUse" gradientTransform="translate(362.276 250.969) rotate(8.49757) scale(99.529 148.757)">
<stop stop-color="#123AA8"/>
<stop offset="0.592487" stop-color="#123AA8" stop-opacity="0"/>
</radialGradient>
<radialGradient id="paint17_radial" cx="0" cy="0" r="1" gradientUnits="userSpaceOnUse" gradientTransform="translate(370.352 263.332) rotate(24.6929) scale(85.0368 151.662)">
<stop stop-color="#123AA8"/>
<stop offset="0.756788" stop-color="#123AA8" stop-opacity="0"/>
</radialGradient>
<radialGradient id="paint18_radial" cx="0" cy="0" r="1" gradientUnits="userSpaceOnUse" gradientTransform="translate(360.368 268.376) rotate(95.7949) scale(153.04 83.7548)">
<stop stop-color="#123AA8"/>
<stop offset="0.592487" stop-color="#123AA8" stop-opacity="0"/>
<stop offset="1" stop-color="#123AA8" stop-opacity="0"/>
</radialGradient>
<radialGradient id="paint19_radial" cx="0" cy="0" r="1" gradientUnits="userSpaceOnUse" gradientTransform="translate(383.26 200.809) rotate(93.6621) scale(184.18 65.6403)">
<stop stop-color="#123AA8"/>
<stop offset="0.884611" stop-color="#123AA8" stop-opacity="0"/>
</radialGradient>
<radialGradient id="paint20_radial" cx="0" cy="0" r="1" gradientUnits="userSpaceOnUse" gradientTransform="translate(174.818 239.104) rotate(84.8366) scale(97.7335 51.7086)">
<stop stop-color="#123AA8"/>
<stop offset="0.884611" stop-color="#123AA8" stop-opacity="0"/>
</radialGradient>
<radialGradient id="paint21_radial" cx="0" cy="0" r="1" gradientUnits="userSpaceOnUse" gradientTransform="translate(174.748 241.733) rotate(87.2542) scale(102.001 84.0963)">
<stop stop-color="#123AA8"/>
<stop offset="0.884611" stop-color="#123AA8" stop-opacity="0"/>
</radialGradient>
<radialGradient id="paint22_radial" cx="0" cy="0" r="1" gradientUnits="userSpaceOnUse" gradientTransform="translate(197.923 337.577) rotate(-23.2009) scale(113.618 222.295)">
<stop stop-color="#123AA8"/>
<stop offset="0.708977" stop-color="#123AA8" stop-opacity="0"/>
</radialGradient>
<radialGradient id="paint23_radial" cx="0" cy="0" r="1" gradientUnits="userSpaceOnUse" gradientTransform="translate(157.506 216.794) rotate(-159.501) scale(75.2706 129.017)">
<stop stop-color="#1A3DA0"/>
<stop offset="0.708977" stop-color="#123AA8" stop-opacity="0"/>
</radialGradient>
<radialGradient id="paint24_radial" cx="0" cy="0" r="1" gradientUnits="userSpaceOnUse" gradientTransform="translate(91.2595 242.443) rotate(16.7707) scale(143.554 145.083)">
<stop stop-color="#1E3882"/>
<stop offset="0.761404" stop-color="#123AA8" stop-opacity="0"/>
</radialGradient>
<linearGradient id="paint25_linear" x1="46.2331" y1="162.942" x2="187.788" y2="253.166" gradientUnits="userSpaceOnUse">
<stop offset="0.229329" stop-color="#1DC4FF"/>
<stop offset="1" stop-color="#1CC1FF" stop-opacity="0"/>
</linearGradient>
<radialGradient id="paint26_radial" cx="0" cy="0" r="1" gradientUnits="userSpaceOnUse" gradientTransform="translate(0.0912268 87.1321) rotate(49.6893) scale(165.848 165.397)">
<stop stop-color="#09F8FF"/>
<stop offset="1" stop-color="#0BF7F9" stop-opacity="0"/>
</radialGradient>
<linearGradient id="paint27_linear" x1="54.0513" y1="167.56" x2="93.7753" y2="203.522" gradientUnits="userSpaceOnUse">
<stop stop-color="#26FBFF"/>
<stop offset="0.637346" stop-color="#0BF7F9" stop-opacity="0"/>
</linearGradient>
<linearGradient id="paint28_linear" x1="43.5106" y1="195.127" x2="98.3883" y2="199.037" gradientUnits="userSpaceOnUse">
<stop stop-color="#26FBFF"/>
<stop offset="0.637346" stop-color="#0BF7F9" stop-opacity="0"/>
</linearGradient>
<radialGradient id="paint29_radial" cx="0" cy="0" r="1" gradientUnits="userSpaceOnUse" gradientTransform="translate(150.634 256.032) rotate(-107.446) scale(162.209 112.266)">
<stop stop-color="#00BCFF" stop-opacity="0.76"/>
<stop offset="0.57273" stop-color="#00BAFC" stop-opacity="0"/>
</radialGradient>
<clipPath id="clip0">
<rect width="396.5" height="289" fill="white" transform="translate(58.1699 111.5)"/>
</clipPath>
</defs>
</svg>
