<svg xmlns="http://www.w3.org/2000/svg" xml:space="preserve" viewBox="0 0 127 127">
    <path fill="#fb275d" d="M24.8 87.2c-3.7 0-7.1-1.9-8.9-5.1-1.8-3.1-1.7-6.9.3-9.9L34.5 44c1.9-3.1 5.4-4.9 9.1-4.8 3.7.1 7.1 2.1 8.8 5.3 1.7 3.2 1.5 7-.5 9.9L33.4 82.6c-1.8 2.8-5.1 4.6-8.6 4.6z"/>
    <path fill="#fc0" d="M56.1 87.2c-3.7 0-7.1-1.9-8.9-5-1.8-3.1-1.7-6.9.3-9.9l18.4-28.1c1.9-3.1 5.3-5 9.1-4.9s7.1 2.1 8.8 5.3 1.5 7-.7 10l-18.4 28c-1.8 2.8-5.1 4.5-8.6 4.6z"/>
    <path fill="#00ca72" d="M86.7 87.2c5.6 0 10.2-4.6 10.2-10.2s-4.6-10.2-10.2-10.2S76.5 71.4 76.5 77c0 5.7 4.5 10.2 10.2 10.2z"/>
</svg>
