<svg xmlns="http://www.w3.org/2000/svg" fill="none" viewBox="0 0.5771812080536912 42.483 42.711409395973156" style="max-height: 500px" width="42.483" height="42.711409395973156">
<rect fill="white" height="43" width="289"/>
<rect fill="white" height="28" width="31" y="8" x="5"/>
<path fill="#2266F7" d="M27.6963 17.2871C27.8245 17.249 27.9532 17.3451 27.9532 17.4788L27.9532 23.8135C27.9532 23.9021 27.8949 23.9801 27.8099 24.0053L21.2687 25.9381C21.0834 25.9929 20.8861 25.9928 20.7008 25.9378L14.1899 24.0054C14.105 23.9802 14.0468 23.9022 14.0468 23.8136V17.4788C14.0468 17.3451 14.1755 17.249 14.3037 17.2871L19.7946 18.9168C20.58 19.1499 21.42 19.1499 22.2054 18.9168L27.6963 17.2871Z"/>
<path fill="#2266F7" d="M23.5833 1.34521C21.8908 0.88493 20.1092 0.88493 18.4167 1.34521L5.19168 4.94185C2.12971 5.77458 0 8.59583 0 11.8193V32.1807C0 35.4042 2.12972 38.2254 5.19169 39.0581L18.4167 42.6548C20.1092 43.1151 21.8908 43.1151 23.5833 42.6548L36.8083 39.0581C39.8703 38.2254 42 35.4042 42 32.1807V11.8193C42 8.59583 39.8703 5.77458 36.8083 4.94185L23.5833 1.34521ZM14.3037 28.1232C14.1755 28.0852 14.0468 28.1812 14.0468 28.3149V32.6921C14.0468 33.119 13.6423 33.43 13.2298 33.3203L10.483 32.5901C10.1982 32.5144 10 32.2566 10 31.962V15.4491C10 13.6983 11.7564 12.447 13.4913 12.9619L20.7008 15.1016C20.8861 15.1566 21.0834 15.1568 21.2688 15.102L28.5087 12.9619C30.2436 12.447 32 13.6983 32 15.4491L32 24.9239C32 26.0663 31.2275 27.0752 30.0955 27.4111L22.2054 29.7529C21.42 29.986 20.58 29.986 19.7946 29.7529L14.3037 28.1232Z" clip-rule="evenodd" fill-rule="evenodd"/>
<path fill="#31323A" d="M77.8087 25.3871H77.4034C76.8631 25.3871 76.5929 24.9806 76.4578 24.5742V5.87742C76.4578 5.33548 76.0526 5.06452 75.5122 5.06452H73.0807C72.5404 5.06452 72.1351 5.47097 72.1351 5.87742V26.8774C72.1351 28.3677 73.486 29.7226 74.9719 29.5871H77.6736C77.9438 29.5871 78.2139 29.3161 78.2139 29.0452V25.929C78.349 25.6581 78.0788 25.3871 77.8087 25.3871Z"/>
<path fill="#31323A" d="M126.439 12.1097C123.197 12.1097 121.036 13.7355 120.36 14.2774L119.955 13.0581C119.82 12.6516 119.55 12.5161 119.145 12.5161H117.929C117.388 12.5161 116.983 12.9226 116.983 13.329V28.7742C116.983 29.3161 117.388 29.5871 117.929 29.5871H120.225C121.036 29.5871 121.306 29.3161 121.306 28.7742V18.3419C121.576 17.6645 123.467 15.9032 126.034 15.9032C128.33 15.9032 129.546 17.3936 129.546 20.1032V28.7742C129.546 29.3161 129.951 29.7226 130.492 29.5871H132.923C133.464 29.5871 133.869 29.1807 133.869 28.7742V20.2387C133.869 14.9548 131.167 12.1097 126.439 12.1097Z"/>
<path fill="#31323A" d="M255.85 25.7935C255.715 25.5226 255.58 25.3871 255.445 25.2516C255.31 25.2516 255.31 25.2516 255.175 25.2516C255.039 25.2516 254.904 25.2516 254.769 25.3871C253.959 25.7935 253.013 26.0645 252.203 26.2C251.527 26.2 250.852 26.0645 250.852 24.5742L250.987 16.1742H255.175C255.715 16.1742 256.12 15.7677 256.12 15.3613V13.329C256.12 12.7871 255.715 12.5161 255.31 12.5161L250.987 12.3806V7.09677C250.987 6.55484 250.582 6.28387 250.176 6.28387H247.745C247.205 6.28387 246.799 6.69032 246.799 7.09677L246.664 12.3806H245.043C244.503 12.3806 244.098 12.7871 244.098 13.1935V15.0903C244.098 15.6323 244.503 16.0387 245.043 15.9032L246.799 16.0387V24.7097C246.799 26.8774 247.205 29.8581 251.257 29.8581C253.418 29.8581 255.985 28.7742 256.39 28.6387C256.796 28.5032 257.066 28.0968 256.931 27.6903V27.5548L255.85 25.7935Z"/>
<path fill="#31323A" d="M106.582 12.1097C103.475 12.1097 101.448 13.6 100.503 14.2774L99.9625 13.0581C99.8275 12.6516 99.5573 12.5161 99.152 12.5161H97.9363C97.3959 12.5161 96.9907 12.9226 96.9907 13.329V28.7742C96.9907 29.3161 97.3959 29.5871 97.9363 29.5871H100.233C101.043 29.5871 101.313 29.3161 101.313 28.7742V18.3419C101.584 17.6645 103.475 15.9032 106.041 15.9032C108.338 15.9032 109.554 17.3936 109.554 20.1032V28.7742C109.554 29.3161 109.959 29.7226 110.499 29.5871H112.931C113.471 29.5871 113.876 29.1807 113.876 28.7742V20.2387C113.876 14.9548 111.175 12.1097 106.582 12.1097Z"/>
<path fill="#31323A" d="M88.2102 11.9742C86.1839 11.9742 84.1577 12.2452 82.1314 12.9226C81.7261 13.0581 81.456 13.4645 81.456 13.871C81.456 13.871 81.456 13.871 81.456 14.0065L81.8612 15.6323C81.8612 16.0387 82.2665 16.3097 82.6717 16.4452C82.8068 16.4452 82.8068 16.4452 82.9419 16.4452C84.5629 16.0387 86.1839 15.7677 87.8049 15.6323C88.7505 15.6323 89.2909 15.7677 89.6961 16.1742C90.2365 16.7161 90.3715 17.529 90.2365 19.1548C89.1558 18.8839 88.0751 18.7484 86.9944 18.7484C82.8068 18.7484 79.97 20.9161 79.97 24.3032C79.97 27.6903 82.2665 30.129 85.6436 30.129C87.6699 30.129 89.2909 29.4516 91.047 28.2323L91.4522 29.1806C91.5873 29.5871 91.8575 29.8581 92.2627 29.8581H93.4785C94.0188 29.8581 94.4241 29.4516 94.4241 29.0452V19.9677C94.4241 15.4968 93.8837 11.9742 88.2102 11.9742ZM90.3715 24.8452C89.4259 26.0645 88.0751 26.8774 86.5892 26.8774C85.2383 26.8774 84.0226 25.7936 84.0226 24.4387C84.0226 24.3032 84.0226 24.3032 84.0226 24.1677C84.0226 22.5419 85.3734 21.4581 87.5348 21.4581C88.6154 21.4581 89.561 21.729 90.5066 22.1355L90.3715 24.8452Z"/>
<path fill="#31323A" d="M61.4635 11.1613C59.3021 11.1613 57.2759 11.9742 55.6548 13.4645L55.5198 13.6L55.2496 12.1097C55.1145 11.8387 54.8443 11.5677 54.5742 11.7032H52.8181C52.4128 11.7032 52.0076 11.9742 52.0076 12.5161V37.5806C52.0076 38.1226 52.4128 38.3936 52.9532 38.529H55.5198C56.1952 38.529 56.4654 38.1226 56.4654 37.5806L56.6004 29.1806C57.9513 29.9935 59.5723 30.4 61.1933 30.4C66.1914 30.4 70.1089 26.2 70.1089 20.7806C70.1089 15.3613 66.4616 11.1613 61.4635 11.1613ZM60.653 26.7419C59.5723 26.7419 58.3565 26.471 57.4109 25.929C56.7355 25.6581 56.3303 24.9806 56.3303 24.1677V18.2065C56.3303 17.8 56.4654 17.3935 56.6004 17.1226C57.546 15.7677 59.167 14.9548 60.7881 14.9548C63.7599 14.9548 65.7862 17.3935 65.7862 20.9161C65.9213 24.3032 63.7599 26.7419 60.653 26.7419Z"/>
<path fill="#31323A" d="M287.865 12.9226C287.46 12.2452 285.839 11.9742 284.623 11.9742C281.921 11.9742 280.3 13.4645 279.49 14.1419L279.084 13.0581C278.949 12.6516 278.679 12.3806 278.274 12.3806H277.058C276.518 12.3806 276.113 12.7871 276.113 13.1936V28.6387C276.113 29.1806 276.518 29.4516 277.058 29.4516H279.084C279.76 29.4516 280.3 29.3161 280.3 28.6387V17.8C281.111 16.5806 282.597 15.7677 284.083 15.7677C284.623 15.7677 285.028 15.9032 285.569 16.0387C285.704 16.0387 285.839 16.1742 285.974 16.1742C286.244 16.1742 286.649 16.0387 286.784 15.6323L287.865 13.6C288.135 13.4645 288 13.1936 287.865 12.9226Z"/>
<path fill="#31323A" d="M181.283 12.5161H179.662C179.392 12.5161 179.122 12.6516 178.987 13.0581L178.582 14.2774C177.096 12.7871 174.934 11.9742 172.908 11.9742C167.91 11.9742 164.263 16.1742 164.263 21.729C164.263 27.2839 168.045 31.3484 173.178 31.3484C174.799 31.3484 176.42 30.9419 177.906 30.2645V30.671C178.041 31.8903 177.636 33.1097 176.691 33.9226C175.61 35.1419 173.989 35.6839 171.827 35.6839C170.071 35.6839 168.45 34.871 167.64 34.329C167.505 34.329 167.37 34.1936 167.235 34.1936C166.964 34.1936 166.829 34.329 166.694 34.4645L165.749 36.3613C165.614 36.6323 165.614 37.0387 166.019 37.1742C166.559 37.5807 169.396 39.3419 172.908 39.3419H173.178C178.582 39.2065 182.364 35.8194 182.364 31.2129V13.1936C182.094 12.7871 181.689 12.5161 181.283 12.5161ZM177.906 25.1161C177.906 25.7936 177.501 26.471 176.826 26.8774C175.88 27.4194 174.664 27.6903 173.584 27.6903C170.477 27.6903 168.315 25.2516 168.315 21.8645C168.315 18.3419 170.342 15.9032 173.313 15.9032C174.934 15.9032 176.555 16.7161 177.501 18.071C177.771 18.3419 177.771 18.7484 177.771 19.1548L177.906 25.1161Z"/>
<path fill="#31323A" d="M204.113 24.1677C203.978 24.0323 203.707 23.8968 203.572 23.8968C203.302 23.8968 203.032 24.0323 202.897 24.1677L202.627 24.4387C201.816 25.2516 200.871 26.0645 198.844 26.0645C196.143 26.0645 193.981 23.7613 193.981 20.9161C193.846 18.2065 196.143 15.9032 198.844 15.7677H198.979C200.33 15.7677 201.546 16.4452 202.492 17.3936C202.627 17.529 202.897 17.6645 203.167 17.8C203.437 17.8 203.572 17.6645 203.707 17.529L205.193 16.3097C205.328 16.1742 205.464 15.9032 205.599 15.7677C205.599 15.4968 205.599 15.2258 205.464 15.0903C203.978 13.0581 201.546 11.9742 199.115 12.1097C194.116 12.1097 189.929 16.3097 189.929 21.1871C189.929 26.0645 193.981 30.129 199.115 30.129C201.951 30.129 204.383 28.9097 205.869 26.471C206.139 26.0645 206.004 25.5226 205.599 25.2516L204.113 24.1677Z"/>
<path fill="#31323A" d="M215.325 11.9742C210.327 11.9742 206.544 15.9032 206.544 20.9161C206.544 26.0645 210.327 29.8581 215.325 29.8581C217.756 29.8581 220.188 29.0452 221.809 27.6903C222.079 27.5548 222.214 27.2839 222.214 27.1484C222.214 26.8774 222.079 26.7419 221.944 26.471L220.728 24.8452C220.593 24.7097 220.458 24.5742 220.188 24.5742C219.918 24.5742 219.647 24.7097 219.377 24.8452C218.296 25.6581 216.946 26.0645 215.595 26.0645C213.028 26.0645 211.002 24.1677 210.732 21.729H222.349C222.754 21.729 223.16 21.3226 223.16 20.9161C223.16 20.5097 223.295 20.1032 223.295 19.6968C223.43 15.4968 219.918 11.9742 215.325 11.9742ZM211.002 19.0194C211.407 16.9871 213.163 15.4968 215.325 15.4968C217.351 15.4968 218.972 17.1226 219.107 19.1548L211.002 19.0194Z"/>
<path fill="#31323A" d="M235.587 12.1097C232.345 12.1097 230.184 13.7355 229.508 14.2774L229.103 13.0581C228.968 12.6516 228.698 12.5161 228.293 12.5161H227.077C226.537 12.5161 226.131 12.9226 226.131 13.329V28.7742C226.131 29.3161 226.537 29.5871 227.077 29.5871H229.373C230.184 29.5871 230.454 29.3161 230.454 28.7742V18.3419C230.724 17.6645 232.615 15.9032 235.182 15.9032C237.478 15.9032 238.694 17.3936 238.694 20.1032V28.7742C238.694 29.3161 239.099 29.7226 239.64 29.5871H242.071C242.612 29.5871 243.017 29.1807 243.017 28.7742V20.2387C243.017 14.9548 240.315 12.1097 235.587 12.1097Z"/>
<path fill="#31323A" d="M139.272 4.52258C137.921 4.52258 136.705 5.60645 136.705 7.09678C136.705 8.45162 137.786 9.67097 139.272 9.67097C140.623 9.67097 141.839 8.5871 141.974 7.23226C141.974 5.87742 140.893 4.65807 139.542 4.52258C139.407 4.52258 139.407 4.52258 139.272 4.52258Z"/>
<path fill="#31323A" d="M140.623 12.5161H138.191C137.651 12.5161 137.246 12.9226 137.246 13.329V28.7742C137.246 29.3161 137.651 29.5871 138.191 29.5871H140.623C141.163 29.5871 141.569 29.1806 141.569 28.7742V13.329C141.569 12.9226 141.163 12.5161 140.623 12.5161Z"/>
<path fill="#31323A" d="M154.537 12.1097C151.295 12.1097 149.133 13.7355 148.458 14.2774L148.053 13.0581C147.918 12.6516 147.647 12.5161 147.242 12.5161H145.891C145.351 12.5161 144.946 12.9226 144.946 13.329V28.7742C144.946 29.3161 145.351 29.5871 145.891 29.5871H148.188C148.998 29.5871 149.268 29.3161 149.268 28.7742V18.3419C149.539 17.6645 151.43 15.9032 153.996 15.9032C156.293 15.9032 157.509 17.3936 157.509 20.1032V28.7742C157.509 29.3161 157.914 29.7226 158.454 29.5871H160.886C161.426 29.5871 161.831 29.1807 161.831 28.7742V20.2387C161.831 13.0581 157.238 12.1097 154.537 12.1097Z"/>
<path fill="#31323A" d="M266.116 11.9742C261.118 11.9742 257.336 15.9032 257.336 20.9161C257.336 26.0645 261.118 29.8581 266.116 29.8581C268.548 29.8581 270.979 29.0452 272.6 27.6903C272.871 27.5548 273.006 27.2839 273.006 27.1484C273.006 26.8774 272.871 26.7419 272.736 26.471L271.52 24.8452C271.385 24.7097 271.25 24.5742 270.979 24.5742C270.709 24.5742 270.439 24.7097 270.169 24.8452C269.088 25.6581 267.737 26.0645 266.387 26.0645C263.82 26.0645 261.794 24.1677 261.659 21.729H273.276C273.681 21.729 274.086 21.3226 274.086 20.9161C274.086 20.5097 274.221 20.1032 274.221 19.6968C274.221 15.4968 270.709 11.9742 266.116 11.9742ZM261.659 19.0194C262.064 16.9871 263.955 15.4968 265.981 15.4968C268.008 15.4968 269.629 17.1226 269.764 19.1548L261.659 19.0194Z"/>
</svg>
