<svg xmlns="http://www.w3.org/2000/svg" width="21" height="21" fill="none"><path fill="#fff" d="M6.777 4.2961q.7112.0001 1.073.2456.3731.2452.373.8406c0 .8098-.4817 1.2146-1.446 1.2146-.4977 0-.9039-.4035-.9039-.9013v-.4982c0-.4978.4062-.9013.904-.9013m7.1035 10.548q.7322 0 1.0685.2218.3483.222.3485.7244c-.0001.6851-.4728 1.028-1.417 1.028h-.0467c-.4976 0-.901-.4037-.9012-.9013v-.1716a.901.901 0 0 1 .9012-.9013zm-.1558-2.9556c.4162 0 .7206.0629.9127.1874q.2999.1751.3001.595c0 .296-.0966.5257-.2887.6892q-.2878.2454-.9355.2456a.781.781 0 0 1-.7807-.7807v-.1444a.7924.7924 0 0 1 .7921-.7921"/><path fill="#fff" fill-rule="evenodd" d="M14 1.75C14 .875 13.125 0 12.25 0H1.75C.875 0 0 .875 0 1.75v10.5C0 13.125.875 14 1.75 14H7v5.25c0 .875.875 1.75 1.75 1.75h10.5c.875 0 1.75-.875 1.75-1.75V8.75C21 7.875 20.125 7 19.25 7H14zM4.1014 3.8305c.0001-.4977.4036-.9013.9013-.9013h1.8826q.639 0 1.1934.1285.5665.117.9761.4093c.2813.1869.503.4395.6636.7587q.2411.4674.2412 1.1566-.0001.6658-.2535 1.1565c-.1607.327-.3815.596-.6627.8062-.2813.2103-.6073.3662-.977.4674q-.5544.1516-1.1811.1514h-.111a.9013.9013 0 0 0-.9012.9013v.7939a.8865.8865 0 0 1-.8863.8863c-.4892 0-.8854-.397-.8854-.8863zm7.1096 7.6568a.8974.8974 0 0 1 .8973-.8975h1.7201q.6096 0 1.1234.0929.5261.0814.9088.3024c.2549.1473.4542.3416.5976.5819q.227.3606.2269.9071-.0002.256-.0841.5119a1.42 1.42 0 0 1-.2383.4768c-.1116.1473-.2516.2789-.4189.3952q-.243.169-.5757.2507a.029.029 0 0 0-.0219.028c0 .0138.0101.0255.0236.0281.5461.1019.9607.2947 1.2435.5775q.4302.4305.4302 1.1981 0 .5814-.2269 1-.2272.4186-.6336.6976-.4063.2678-.956.4076-.538.128-1.1716.1279h-1.9471c-.4955 0-.8972-.4019-.8973-.8974z" clip-rule="evenodd"/></svg>
