<svg xmlns="http://www.w3.org/2000/svg" xmlns:xlink="http://www.w3.org/1999/xlink" width="500" zoomAndPan="magnify"
    viewBox="0 0 40" height="500" preserveAspectRatio="xMidYMid meet" version="1.0">
    <defs>
        <clipPath id="31a224b9e1">
            <path d="M 46.875 46.875 L 328.125 46.875 L 328.125 328.125 L 46.875 328.125 Z M 46.875 46.875 "
                clip-rule="nonzero" />
        </clipPath>
        <clipPath id="de2915e53e">
            <path
                d="M 64.125 46.875 L 310.875 46.875 C 315.449219 46.875 319.835938 48.691406 323.074219 51.925781 C 326.308594 55.164062 328.125 59.550781 328.125 64.125 L 328.125 310.875 C 328.125 315.449219 326.308594 319.835938 323.074219 323.074219 C 319.835938 326.308594 315.449219 328.125 310.875 328.125 L 64.125 328.125 C 59.550781 328.125 55.164062 326.308594 51.925781 323.074219 C 48.691406 319.835938 46.875 315.449219 46.875 310.875 L 46.875 64.125 C 46.875 59.550781 48.691406 55.164062 51.925781 51.925781 C 55.164062 48.691406 59.550781 46.875 64.125 46.875 "
                clip-rule="nonzero" />
        </clipPath>
        <clipPath id="34bbdbcc7d">
            <path d="M 71 158 L 304.582031 158 L 304.582031 218 L 71 218 Z M 71 158 " clip-rule="nonzero" />
        </clipPath>
    </defs>
    <g clip-path="url(#31a224b9e1)">
        <g clip-path="url(#de2915e53e)">
            <path fill="#000000"
                d="M 46.875 46.875 L 328.125 46.875 L 328.125 328.125 L 46.875 328.125 Z M 46.875 46.875 "
                fill-opacity="1" fill-rule="nonzero" />
        </g>
    </g>
    <g clip-path="url(#34bbdbcc7d)">
        <path fill="#ffffff"
            d="M 96.699219 166.351562 L 75.835938 213.335938 C 75.339844 214.332031 74.941406 215.53125 74.445312 216.554688 C 73.949219 217.578125 72.855469 217.722656 71.964844 217.453125 C 70.671875 216.953125 71.566406 216.054688 71.863281 215.257812 L 96.703125 159.199219 C 97.996094 159.597656 97.996094 160.796875 98.394531 161.496094 L 121.84375 214.160156 C 122.835938 216.453125 123.007812 217.554688 119.953125 217.378906 C 107.929688 217.277344 96.011719 217.378906 83.886719 217.378906 L 82.296875 217.378906 C 81.699219 217.378906 81.128906 217.078125 81.003906 216.207031 C 81.003906 215.410156 81.5 215.039062 82.171875 215.039062 L 115.984375 215.039062 C 117.773438 215.039062 118.964844 214.9375 117.871094 212.546875 L 97.472656 166.863281 C 97.472656 167.0625 97.175781 166.960938 96.675781 166.464844 Z M 141.808594 187.796875 L 141.808594 161.660156 C 141.808594 159.46875 142.207031 158.441406 144.792969 158.441406 C 152.144531 158.742188 159.59375 158.144531 166.949219 159.738281 C 170.328125 160.539062 173.503906 161.535156 176.390625 163.628906 C 183.742188 168.917969 183.742188 179.589844 176.289062 184.773438 C 174.003906 186.371094 171.421875 187.367188 168.9375 188.664062 C 168.042969 189.164062 167.246094 189.0625 166.753906 188.066406 C 165.957031 186.769531 167.246094 186.671875 167.917969 186.367188 L 173.28125 183.675781 C 180.929688 179.289062 180.929688 169.015625 173.28125 164.628906 C 168.808594 162.035156 163.742188 161.410156 158.675781 161.136719 C 155.097656 160.839844 151.320312 161.136719 147.746094 161.039062 C 145.460938 160.9375 144.832031 161.835938 144.832031 164.03125 L 144.832031 216.496094 C 144.832031 217.488281 144.335938 217.789062 143.441406 217.789062 C 142.546875 217.789062 142.050781 217.394531 142.050781 216.496094 L 142.050781 214.300781 L 141.753906 187.765625 Z M 202.589844 187.796875 L 202.589844 161.261719 C 202.589844 159.167969 202.984375 158.335938 205.269531 158.335938 L 241.636719 158.039062 C 242.804688 158.039062 244.21875 157.640625 244.121094 159.636719 C 244.121094 161.53125 242.53125 161.03125 241.539062 161.03125 L 209.046875 161.332031 C 206.066406 161.332031 205.570312 162.230469 205.570312 164.921875 L 205.570312 211.128906 C 205.570312 214.054688 206.167969 215.019531 209.347656 215.019531 C 220.273438 214.722656 231.304688 214.921875 242.234375 214.921875 C 243.097656 214.90625 243.957031 214.9375 244.816406 215.019531 C 245.414062 215.019531 245.710938 215.417969 245.808594 216.015625 C 245.808594 216.613281 245.511719 217.011719 244.914062 217.183594 C 244.117188 217.285156 243.320312 217.285156 242.726562 217.285156 C 230.605469 217.285156 218.484375 217.183594 206.359375 217.382812 C 203.378906 217.382812 202.882812 216.390625 202.882812 213.59375 L 202.59375 187.761719 Z M 263.789062 158.875 C 265.679688 158.074219 266.871094 158.972656 267.964844 160.667969 L 281.378906 181.515625 C 282.765625 183.808594 283.464844 183.410156 284.757812 181.417969 L 298.074219 160.867188 C 298.570312 160.269531 298.96875 159.269531 299.664062 158.972656 C 300.261719 158.476562 301.453125 158.476562 302.148438 158.972656 C 302.945312 159.574219 302.050781 160.269531 301.652344 160.769531 L 265.519531 216.058594 C 265.222656 216.457031 265.121094 216.859375 264.722656 217.054688 C 263.925781 217.652344 262.835938 217.851562 262.042969 217.152344 C 261.25 216.453125 262.140625 215.757812 262.539062 215.257812 L 279.527344 189.023438 C 281.117188 186.929688 280.691406 185.632812 279.425781 183.738281 L 265.148438 161.894531 C 264.851562 160.902344 263.984375 160.199219 263.859375 158.902344 Z M 287.097656 189.890625 L 303.886719 215.824219 C 304.183594 216.222656 304.683594 216.820312 304.285156 217.21875 C 303.886719 217.621094 303.117188 217.617188 302.496094 217.617188 C 301.203125 217.519531 300.804688 216.324219 300.308594 215.425781 L 286.574219 194.28125 C 285.40625 192.816406 284.785156 191.285156 287.066406 189.890625 Z M 225.894531 189.492188 L 212.082031 189.492188 C 211.1875 189.492188 209.796875 189.890625 209.898438 188.097656 C 209.996094 186.5 211.289062 187.101562 212.082031 187.101562 L 239.804688 187.101562 C 240.699219 187.101562 242.089844 186.707031 241.992188 188.5 C 241.890625 190.097656 240.601562 189.492188 239.804688 189.492188 Z M 225.894531 189.492188 "
            fill-opacity="1" fill-rule="nonzero" />
    </g>
</svg>